<svg xmlns="http://www.w3.org/2000/svg" viewBox="0 0 48 48" width="48" height="48">
  <circle cx="24" cy="24" r="22" fill="#25D366"/>
  <path d="M24 6C14.06 6 6 14.06 6 24c0 3.18.83 6.16 2.28 8.76L6 42l9.5-2.5C18 40.8 20.92 42 24 42c9.94 0 18-8.06 18-18S33.94 6 24 6zm0 33c-2.76 0-5.4-.72-7.72-2.08l-.56-.32-5.64 1.48 1.5-5.5-.36-.56A14.88 14.88 0 019 24c0-8.28 6.72-15 15-15s15 6.72 15 15-6.72 15-15 15zm8.2-11.18c-.44-.22-2.64-1.3-3.06-1.46-.42-.14-.72-.22-1.02.22-.3.44-1.18 1.46-1.44 1.76-.26.3-.54.34-.98.12-.44-.22-1.88-.7-3.58-2.22-1.32-1.18-2.22-2.64-2.48-3.08-.26-.44-.02-.68.2-.9.2-.2.44-.52.66-.78.22-.26.3-.44.44-.74.14-.3.08-.56-.04-.78-.12-.22-1.02-2.46-1.4-3.36-.36-.88-.74-.76-1.02-.78h-.86c-.3 0-.78.12-1.18.56-.4.44-1.56 1.52-1.56 3.72s1.6 4.32 1.82 4.62c.22.3 3.14 4.8 7.62 6.72 1.06.46 1.9.74 2.54.94.84.28 1.6.24 2.2.14.68-.1 2.64-1.08 3.02-2.12.36-1.04.36-1.94.26-2.12-.12-.2-.42-.32-.86-.54z" fill="white"/>
</svg>
